<?xml version="1.0" ?><svg id="Layer_1" style="enable-background:new 0 0 64 64;" version="1.1" viewBox="0 0 64 64" xml:space="preserve" xmlns="http://www.w3.org/2000/svg" xmlns:xlink="http://www.w3.org/1999/xlink"><style type="text/css">
	.st0{fill:url(#SVGID_1_);}
	.st1{fill:url(#SVGID_2_);}
	.st2{fill:url(#SVGID_3_);}
	.st3{fill:url(#SVGID_4_);}
	.st4{fill:#FFFFFF;}
	.st5{fill:url(#SVGID_5_);}
	.st6{fill:url(#SVGID_6_);}
	.st7{fill:url(#SVGID_7_);}
	.st8{fill:url(#SVGID_8_);}
	.st9{fill:url(#SVGID_9_);}
	.st10{fill:#FFBF0B;}
	.st11{fill:#1A1A54;}
	.st12{fill:#DC2863;}
	.st13{fill:none;stroke:#1A1A54;stroke-width:3;stroke-linecap:round;stroke-linejoin:round;stroke-miterlimit:10;}
	.st14{fill:#0B85FF;}
	.st15{opacity:0.5;fill:#FFFFFF;}
	.st16{fill:#00AF64;}
	.st17{fill:#00D17C;}
	.st18{fill:none;stroke:#00D17C;stroke-width:3;stroke-linecap:round;stroke-linejoin:round;stroke-miterlimit:10;}
</style><circle class="st10" cx="32" cy="32" r="32"/><g><path class="st11" d="M29.4,44.4c1.3-0.2,2.6-0.3,3.7-0.5c1.2-0.2,2.3-0.4,3.4-0.6c1.1-0.2,2.1-0.6,3.2-1c1.1-0.4,2.1-1,3.3-1.6   l0.1-0.1c0.4-0.2,1,0,1.2,0.4c0.1,0.2,0.1,0.4,0.1,0.6c-0.4,1.5-1.3,2.9-2.5,3.9c-1.2,1.1-2.7,1.9-4.2,2.2   c-1.5,0.4-3.1,0.5-4.6,0.3c-1.5-0.2-2.9-0.7-4.3-1.6c-0.5-0.4-0.6-1-0.3-1.5c0.2-0.2,0.4-0.4,0.7-0.5L29.4,44.4z"/></g><path class="st11" d="M50,14.4c-10,0.8-14.8,2-18,2c-3.2,0-8-1.2-18-2c-9.9-0.8-13.9-0.8-14,2v2.3c0.1,2,0.7,3.9,3.1,4.6  c0.2,3.6,0.6,10.6,6.5,12.9c5.3,2.1,15,2.1,18.6-6.1c1.8-4,0.4-7.6,3.7-7.6c3.3,0,2,3.6,3.7,7.6c3.6,8.2,13.3,8.2,18.6,6.1  c5.9-2.3,6.3-9.3,6.5-12.9c2.4-0.8,3-2.6,3.1-4.6v-2.3C64,13.6,59.9,13.6,50,14.4z"/><path class="st14" d="M26.3,24.7c-1.4,7.9-5.7,10.3-13,9.2S6.7,23.3,6.6,21.2c0-2.1,1.1-2.7,2.5-2.9C13.5,17.6,21.6,19,24,20  C26.8,21.1,26.8,22,26.3,24.7z M37.9,24.7c1.4,7.9,5.7,10.3,13,9.2s6.6-10.6,6.6-12.7s-1.1-2.7-2.5-2.9C50.7,17.6,42.6,19,40.1,20  C37.3,21.1,37.4,22,37.9,24.7z"/><polygon class="st4" points="5.3,18.1 3.8,19.2 2.4,18.1 3.8,17 "/><polygon class="st4" points="61.6,18.1 60.2,19.2 58.7,18.1 60.2,17 "/></svg>